<?xml version="1.0" encoding="UTF-8" standalone="no"?>
<!-- Generator: Adobe Illustrator 21.0.2, SVG Export Plug-In . SVG Version: 6.00 Build 0)  -->

<svg
   version="1.1"
   x="0px"
   y="0px"
   viewBox="0 0 1024 1024"
   xml:space="preserve"
   id="svg12"
   sodipodi:docname="icon.svg"
   width="1024"
   height="1024"
   inkscape:version="1.1.2 (b8e25be833, 2022-02-05)"
   xmlns:inkscape="http://www.inkscape.org/namespaces/inkscape"
   xmlns:sodipodi="http://sodipodi.sourceforge.net/DTD/sodipodi-0.dtd"
   xmlns="http://www.w3.org/2000/svg"
   xmlns:svg="http://www.w3.org/2000/svg"
   xmlns:rdf="http://www.w3.org/1999/02/22-rdf-syntax-ns#"
   xmlns:cc="http://creativecommons.org/ns#"
   xmlns:dc="http://purl.org/dc/elements/1.1/"><metadata
   id="metadata18"><rdf:RDF><cc:Work
       rdf:about=""><dc:format>image/svg+xml</dc:format><dc:type
         rdf:resource="http://purl.org/dc/dcmitype/StillImage" /></cc:Work></rdf:RDF></metadata><defs
   id="defs16"><linearGradient
     id="linearGradient3487"
     inkscape:swatch="solid"><stop
       style="stop-color:#ff0000;stop-opacity:1;"
       offset="0"
       id="stop3485" /></linearGradient></defs><sodipodi:namedview
   pagecolor="#ffffff"
   bordercolor="#666666"
   borderopacity="1"
   objecttolerance="10"
   gridtolerance="10"
   guidetolerance="10"
   inkscape:pageopacity="0"
   inkscape:pageshadow="2"
   inkscape:window-width="2560"
   inkscape:window-height="1387"
   id="namedview14"
   showgrid="false"
   fit-margin-top="0"
   fit-margin-left="0"
   fit-margin-right="0"
   fit-margin-bottom="0"
   inkscape:pagecheckerboard="true"
   inkscape:zoom="0.77889007"
   inkscape:cx="528.31589"
   inkscape:cy="726.67508"
   inkscape:window-x="-8"
   inkscape:window-y="-8"
   inkscape:window-maximized="1"
   inkscape:current-layer="layer2"
   inkscape:lockguides="true"
   width="352.33984px"
   showguides="true"
   inkscape:guide-bbox="true"><sodipodi:guide
     position="511.06377,1080.8116"
     orientation="1,0"
     id="guide7524"
     inkscape:locked="true" /><sodipodi:guide
     position="-498.30523,511.57211"
     orientation="0,-1"
     id="guide8806"
     inkscape:locked="true" /></sodipodi:namedview>
<style
   type="text/css"
   id="style2">
	.st0{font-family:'MyriadPro-Regular';}
	.st1{font-size:12px;}
	.st2{display:none;}
	.st3{display:inline;}
</style>

<g
   inkscape:groupmode="layer"
   id="layer1"
   inkscape:label="Layer 1"
   style="display:inline"><circle
     style="mix-blend-mode:normal;fill:#e6153a;fill-opacity:1;fill-rule:evenodd;stroke-width:0.913422"
     id="path139"
     cx="512.67566"
     cy="511.3559"
     r="469.08835" /></g><g
   inkscape:groupmode="layer"
   id="layer2"
   inkscape:label="Layer 2"
   style="display:inline"><g
     fill="#ffffff"
     id="Layer_3"
     transform="matrix(0.54382424,0,0,0.54382424,411.86712,278.86116)"><text
       transform="translate(243.8164,413)"
       class="st0 st1"
       id="text4"
       style="font-size:12px;font-family:MyriadPro-Regular">Adeptus Ministorum</text><path
       d="M 377.3,280.4 V 232 H 277.1 l 0.6,-112.9 c 0,-9.3 1.3,-29.8 15,-49 27.9,-39.1 80,-35.3 83,-35 0,-11.7 0,-23.3 0,-35 h -187 -0.1 -187 c 0,11.7 0,23.3 0,35 3,-0.3 55.1,-4.1 83,35 13.7,19.2 15,39.7 15,49 L 100.2,232 H 0 v 48.4 h 100.5 l 0.2,33.5 H 0 v 48.4 h 100.9 l 0.2,33.5 H 0 v 48.4 h 101.3 l 0.3,53.8 c -0.7,78.7 -1.3,157.3 -2,236 0.4,6.6 1.5,33.9 -18,57 -18.8,22.3 -49.6,32.2 -80,26 v 40 h 187 0.1 187 v -40 c -30.4,6.2 -61.2,-3.7 -80,-26 -19.5,-23.1 -18.4,-50.4 -18,-57 -0.7,-78.7 -1.3,-157.3 -2,-236 l 0.3,-53.8 h 101.3 v -48.4 h -101 l 0.2,-33.5 H 377.4 V 313.9 H 276.7 l 0.2,-33.5 z"
       id="path6"
       inkscape:connector-curvature="0" /></g></g><g
   id="skull"
   class="st2"
   style="display:none"
   transform="translate(0,-57)">
	<path
   class="st3"
   d="m 275.7,228.5 c -16.4,-48 -65,-55.5 -86,-56.4 v 0 c 0,0 -1.8,-0.1 -4.8,-0.1 0,0 0,0 -0.1,0 -0.1,0 0,0 -0.1,0 -3.1,0 -4.8,0.1 -4.8,0.1 v 0 c -21,1 -69.5,8.5 -85.9,56.4 -14,40.9 12.5,87.2 7.1,93.4 -21.6,25 7.8,64.6 11.8,67.9 7.2,5.9 30.2,-6.1 26.6,0.1 -2.7,4.7 -5.3,40.1 -5.3,40.1 h 7.1 l 3.4,-12.3 6.1,-0.1 1.2,12.4 h 12.4 l 1.2,-11.8 4.1,-0.6 0.6,12.4 h 10.1 l 0.5,-12.7 h 8.2 l 0.5,12.7 h 10.1 l 0.6,-12.4 4.1,0.6 1.2,11.8 H 218 l 1.2,-12.4 6.1,0.1 3.4,12.3 h 7.1 c 0,0 -2.5,-35.4 -5.3,-40.1 -3.6,-6.2 19.3,5.7 26.6,-0.1 4,-3.3 33.3,-42.9 11.8,-67.9 -5.7,-6.2 20.8,-52.5 6.8,-93.4 z M 171.5,347.8 c -2.8,3.2 -6.9,6.9 -12.4,10 -13.2,7.5 -26.4,6.4 -31.7,5.7 -0.4,0 -0.7,-0.2 -1,-0.4 -11.6,-7.3 -16,-18.8 -12.6,-25.9 0.5,-1.1 2.5,-4.7 8.6,-6.9 0.4,-0.1 0.7,-0.2 1.1,-0.2 7.3,0.7 16.4,2.1 26.5,5.3 8.2,2.5 15.1,5.6 20.8,8.6 1.4,0.7 1.7,2.6 0.7,3.8 z m 27.7,43.3 c 0,0.8 -1.1,1.1 -1.6,0.5 -1.2,-1.6 -3,-3.4 -5.3,-5.1 -2.5,-1.8 -4.8,-2.9 -6.6,-3.6 -1.8,0.7 -4.2,1.8 -6.6,3.6 -2.3,1.7 -4,3.5 -5.3,5.1 -0.5,0.6 -1.5,0.3 -1.6,-0.5 -0.4,-6.1 -0.1,-18.4 9,-27.4 1.2,-1.2 2.7,-2.2 4.5,-3.2 1.8,1 3.3,2 4.5,3.2 9.1,8.9 9.4,21.4 9,27.4 z m 44.4,-28 c -0.3,0.2 -0.6,0.3 -1,0.4 -5.3,0.7 -18.4,1.8 -31.7,-5.7 -5.5,-3.1 -9.6,-6.8 -12.4,-10 -1.1,-1.2 -0.7,-3.1 0.7,-3.8 5.7,-3 12.7,-6.1 20.8,-8.6 10.1,-3.2 19.2,-4.6 26.5,-5.3 0.4,0 0.7,0 1.1,0.2 6.1,2.2 8,5.9 8.6,6.9 3.4,7.1 -1,18.6 -12.6,25.9 z"
   id="path9"
   inkscape:connector-curvature="0"
   style="display:inline" />
</g>
</svg>
